<svg xmlns="http://www.w3.org/2000/svg" viewBox="0 0 500 500"><g id="freepik--background-simple--inject-2"><path d="M324.18,40.36S251.45,14.49,180.05,55.67,72.62,178.59,41.69,244.06,28.56,376.14,83.06,406.51s91.56-14.4,168-16.58,97,8.75,160.47-34.44,74.92-145.2,24.87-220.68S324.18,40.36,324.18,40.36Z" style="fill:#407BFF"></path><path d="M324.18,40.36S251.45,14.49,180.05,55.67,72.62,178.59,41.69,244.06,28.56,376.14,83.06,406.51s91.56-14.4,168-16.58,97,8.75,160.47-34.44,74.92-145.2,24.87-220.68S324.18,40.36,324.18,40.36Z" style="fill:#fff;opacity:0.7000000000000001"></path></g><g id="freepik--Window--inject-2"><path d="M180.05,55.67c-54,31.14-87.76,85.47-114.39,138.43H462.33a188.06,188.06,0,0,0-25.91-59.29C386.37,59.33,324.18,40.36,324.18,40.36S251.45,14.49,180.05,55.67Z" style="fill:#bfbfbf"></path><path d="M155.59,72.34C115.42,104.2,88,149.63,65.66,194.1h89.93Z" style="fill:#999"></path><polyline points="471.15 193.92 143.34 193.92 47.12 193.92" style="fill:#fff;stroke:#263238;stroke-linecap:round;stroke-linejoin:round"></polyline><line x1="156.46" y1="73.41" x2="156.46" y2="459.85" style="fill:#fff;stroke:#263238;stroke-linecap:round;stroke-linejoin:round"></line><rect x="246.28" y="73.67" width="106.7" height="161.33" style="fill:#858585;stroke:#263238;stroke-linecap:round;stroke-linejoin:round"></rect><rect x="252.89" y="83.67" width="93.47" height="141.33" style="fill:#fff;stroke:#263238;stroke-linecap:round;stroke-linejoin:round"></rect><rect x="252.89" y="151.67" width="93.47" height="73.33" style="fill:#b0b0b0;stroke:#263238;stroke-linecap:round;stroke-linejoin:round"></rect><rect x="252.89" y="151.67" width="93.47" height="11.33" style="fill:#858585;stroke:#263238;stroke-linecap:round;stroke-linejoin:round"></rect><line x1="253" y1="169" x2="346.2" y2="169" style="fill:#fff;stroke:#263238;stroke-linecap:round;stroke-linejoin:round"></line><line x1="253" y1="174.21" x2="346.2" y2="174.21" style="fill:#fff;stroke:#263238;stroke-linecap:round;stroke-linejoin:round"></line><line x1="253" y1="179.42" x2="346.2" y2="179.42" style="fill:#fff;stroke:#263238;stroke-linecap:round;stroke-linejoin:round"></line><line x1="253" y1="184.63" x2="346.2" y2="184.63" style="fill:#fff;stroke:#263238;stroke-linecap:round;stroke-linejoin:round"></line><line x1="253" y1="189.84" x2="346.2" y2="189.84" style="fill:#fff;stroke:#263238;stroke-linecap:round;stroke-linejoin:round"></line><line x1="253" y1="195.05" x2="346.2" y2="195.05" style="fill:#fff;stroke:#263238;stroke-linecap:round;stroke-linejoin:round"></line><line x1="253" y1="200.26" x2="346.2" y2="200.26" style="fill:#fff;stroke:#263238;stroke-linecap:round;stroke-linejoin:round"></line><line x1="253" y1="205.47" x2="346.2" y2="205.47" style="fill:#fff;stroke:#263238;stroke-linecap:round;stroke-linejoin:round"></line><line x1="253" y1="210.68" x2="346.2" y2="210.68" style="fill:#fff;stroke:#263238;stroke-linecap:round;stroke-linejoin:round"></line><line x1="253" y1="215.89" x2="346.2" y2="215.89" style="fill:#fff;stroke:#263238;stroke-linecap:round;stroke-linejoin:round"></line><line x1="253" y1="221.1" x2="346.2" y2="221.1" style="fill:#fff;stroke:#263238;stroke-linecap:round;stroke-linejoin:round"></line></g><g id="freepik--Bathtub--inject-2"><circle cx="284.23" cy="311.76" r="5.13" style="fill:#407BFF;stroke:#263238;stroke-linecap:round;stroke-linejoin:round"></circle><path d="M284.54,313.16h-15.4v-3.42h15.4a1.7,1.7,0,0,1,1.71,1.71h0A1.71,1.71,0,0,1,284.54,313.16Z" style="fill:#407BFF;stroke:#263238;stroke-linecap:round;stroke-linejoin:round"></path><circle cx="315.03" cy="311.76" r="5.13" style="fill:#407BFF;stroke:#263238;stroke-linecap:round;stroke-linejoin:round"></circle><path d="M314.72,313.16h15.4v-3.42h-15.4a1.7,1.7,0,0,0-1.71,1.71h0A1.71,1.71,0,0,0,314.72,313.16Z" style="fill:#407BFF;stroke:#263238;stroke-linecap:round;stroke-linejoin:round"></path><path d="M304.78,320a5.91,5.91,0,1,1-5.91-5.91A5.91,5.91,0,0,1,304.78,320Z" style="fill:#407BFF;stroke:#263238;stroke-linecap:round;stroke-linejoin:round"></path><path d="M301.67,345.2h-5.91v-25a3,3,0,0,1,3-3h0a3,3,0,0,1,2.95,3Z" style="fill:#407BFF;stroke:#263238;stroke-linecap:round;stroke-linejoin:round"></path><path d="M159.93,311s19.33,70,33.33,93.33S221,428.8,229.81,430.9s117.45,0,128.12,0,29.33-6.57,41.33-26.57,34-85.33,34-85.33-24.67,24.67-98,25.33-137.33-20-151.33-25.33-24.67-10.67-24.67-10.67Z" style="fill:#fff;stroke:#263238;stroke-linecap:round;stroke-linejoin:round"></path><path d="M433.26,319s-24.67,24.67-98,25.33a419.78,419.78,0,0,1-49.85-2.61,253.5,253.5,0,0,1-60.26-10.57A367.58,367.58,0,0,1,183.93,319c-14-5.33-24.67-10.67-24.67-10.67l.67,2.67s.91,3.31,2.49,8.72c6.26,4.12,15.83,9.14,28.17,14.95,22.67,10.66,90,22.66,152,18,40.36-3,70.26-14,86.77-22.36C431.77,323.42,433.26,319,433.26,319Z" style="fill:#263238;stroke:#263238;stroke-linecap:round;stroke-linejoin:round"></path><path d="M161.26,297.67S211.93,337,292.59,339s144.67-38.67,148-40.67,4.67-.66,4.67,4,.67,11.34-1.33,15.34-39.34,27.33-101.34,32-129.33-7.34-152-18-36-18.67-36.66-23.34S161.26,297.67,161.26,297.67Z" style="fill:#fff;stroke:#263238;stroke-linecap:round;stroke-linejoin:round"></path><path d="M356.93,419s-8.46,8.72-8.71,12.31,7.43,11,12.56,11,10.51-5.38,10.51-10.26-4.1-12.56-4.1-12.56l2.05-2.82s-3.59-2.56-7.18-2.3a28.76,28.76,0,0,0-7.43,1.79Z" style="fill:#407BFF;stroke:#263238;stroke-linecap:round;stroke-linejoin:round"></path><path d="M356.93,419s2.31,10.26,5.13,8.46,5.13-7.95,5.13-7.95" style="fill:none;stroke:#263238;stroke-linecap:round;stroke-linejoin:round"></path><line x1="358.98" y1="415.37" x2="360.78" y2="423.32" style="fill:none;stroke:#263238;stroke-linecap:round;stroke-linejoin:round"></line><line x1="363.08" y1="414.86" x2="362.57" y2="423.06" style="fill:none;stroke:#263238;stroke-linecap:round;stroke-linejoin:round"></line><line x1="367.19" y1="415.89" x2="364.37" y2="423.06" style="fill:none;stroke:#263238;stroke-linecap:round;stroke-linejoin:round"></line><path d="M378.47,454.08c-1.8-2.31-12.82-1.79-14.62-2.05s-4.61-2-4.35-4.87a64.73,64.73,0,0,1,1.95-8.51,5.25,5.25,0,1,0-4.8-2.14c-.28,1.29-3,13.92-1.77,17.57,1.28,3.85,10.77,6.15,10.77,6.15h14.87S380.26,456.39,378.47,454.08Z" style="fill:#407BFF;stroke:#263238;stroke-linecap:round;stroke-linejoin:round"></path><path d="M233.42,419s8.46,8.72,8.72,12.31-7.44,11-12.57,11-10.51-5.38-10.51-10.26,4.11-12.56,4.11-12.56l-2.06-2.82s3.59-2.56,7.18-2.3a28.9,28.9,0,0,1,7.44,1.79Z" style="fill:#407BFF;stroke:#263238;stroke-linecap:round;stroke-linejoin:round"></path><path d="M233.42,419s-2.31,10.26-5.13,8.46-5.12-7.95-5.12-7.95" style="fill:none;stroke:#263238;stroke-linecap:round;stroke-linejoin:round"></path><line x1="231.37" y1="415.37" x2="229.57" y2="423.32" style="fill:none;stroke:#263238;stroke-linecap:round;stroke-linejoin:round"></line><line x1="227.27" y1="414.86" x2="227.78" y2="423.06" style="fill:none;stroke:#263238;stroke-linecap:round;stroke-linejoin:round"></line><line x1="223.17" y1="415.89" x2="225.99" y2="423.06" style="fill:none;stroke:#263238;stroke-linecap:round;stroke-linejoin:round"></line><path d="M233.7,436.51a5.26,5.26,0,1,0-4.8,2.14,64.78,64.78,0,0,1,2,8.51c.25,2.82-2.57,4.61-4.36,4.87s-12.82-.26-14.61,2.05-2,6.15-2,6.15H224.7s9.49-2.3,10.77-6.15C236.69,450.43,234,437.8,233.7,436.51Z" style="fill:#407BFF;stroke:#263238;stroke-linecap:round;stroke-linejoin:round"></path><path d="M284.43,258.82s-10.24-18-7.88-22.58S285,239.9,285,239.9s-5.26-16.77-2.36-24.09,7.88,0,8.14,5.18-1.05,14-1.05,14,2.1-18.3,7.09-12.81-6.3,23.79-6.3,23.79,7.62-4.27,7.35,1.22-9.19,10.38-9.19,10.38" style="fill:#407BFF"></path><path d="M284.52,255.46s-9.48-8.85-4.86-12.81,7,4.27,7,4.27-5.11-25.32,3.16-26.23,2.19,22,2.19,22,7.05-9.76,6.57-1.83-10.95,14.64-10.95,14.64" style="fill:none;stroke:#263238;stroke-miterlimit:10"></path><line x1="289.18" y1="253.85" x2="282.77" y2="246.91" style="fill:none;stroke:#263238;stroke-miterlimit:10"></line><line x1="287.84" y1="254.38" x2="289.58" y2="234.09" style="fill:none;stroke:#263238;stroke-miterlimit:10"></line><line x1="287.58" y1="252.92" x2="293.32" y2="245.3" style="fill:none;stroke:#263238;stroke-miterlimit:10"></line><polygon points="295.88 251.5 278.15 251.5 279.93 272.41 294.11 272.41 295.88 251.5" style="fill:#263238"></polygon><rect x="259.03" y="245.97" width="10.58" height="26.44" style="fill:#fff;stroke:#263238;stroke-linecap:round;stroke-linejoin:round"></rect><rect x="259.03" y="245.97" width="10.58" height="9.23" style="fill:#263238;stroke:#263238;stroke-linecap:round;stroke-linejoin:round"></rect><path d="M306.94,250.63h4.67a3.11,3.11,0,0,1,3.11,3.11v18.67a0,0,0,0,1,0,0H303.83a0,0,0,0,1,0,0V253.74A3.11,3.11,0,0,1,306.94,250.63Z" style="fill:#fff;stroke:#263238;stroke-linecap:round;stroke-linejoin:round"></path><rect x="306.94" y="244.41" width="4.04" height="6.22" style="fill:#407BFF;stroke:#263238;stroke-linecap:round;stroke-linejoin:round"></rect><path d="M320.94,250.63h4.67a3.11,3.11,0,0,1,3.11,3.11v18.67a0,0,0,0,1,0,0H317.83a0,0,0,0,1,0,0V253.74A3.11,3.11,0,0,1,320.94,250.63Z" style="fill:#fff;stroke:#263238;stroke-linecap:round;stroke-linejoin:round"></path><rect x="320.94" y="244.41" width="4.04" height="6.22" style="fill:#407BFF;stroke:#263238;stroke-linecap:round;stroke-linejoin:round"></rect><rect x="251.25" y="272.1" width="96.75" height="4.36" style="fill:#fff;stroke:#263238;stroke-linecap:round;stroke-linejoin:round"></rect></g><g id="freepik--Sink--inject-2"><path d="M86.5,320.6V460.2H136s3.5,1-2.5-8.5-8-5-9.5-15.5S124,325,124,325Z" style="fill:#5c5c5c;stroke:#263238;stroke-linecap:round;stroke-linejoin:round"></path><rect x="86.5" y="72.5" width="40.5" height="210.5" style="fill:#fff;stroke:#263238;stroke-linecap:round;stroke-linejoin:round"></rect><line x1="125.75" y1="92.5" x2="95.69" y2="200" style="fill:none;stroke:#263238;stroke-linecap:round;stroke-linejoin:round"></line><line x1="94.07" y1="228.02" x2="92.76" y2="232.5" style="fill:none;stroke:#263238;stroke-linecap:round;stroke-linejoin:round"></line><line x1="115.31" y1="155.5" x2="96.96" y2="218.18" style="fill:none;stroke:#263238;stroke-linecap:round;stroke-linejoin:round"></line><line x1="92.18" y1="92.65" x2="89.84" y2="98.5" style="fill:none;stroke:#263238;stroke-linecap:round;stroke-linejoin:round"></line><line x1="99.44" y1="74.5" x2="94.44" y2="87" style="fill:none;stroke:#263238;stroke-linecap:round;stroke-linejoin:round"></line><line x1="124.08" y1="223" x2="117.4" y2="244.5" style="fill:none;stroke:#263238;stroke-linecap:round;stroke-linejoin:round"></line><path d="M108.42,286.77h-4V263.05a13.16,13.16,0,0,1,12.26-13.27,12.92,12.92,0,0,1,13.55,12.89v8.69a.48.48,0,0,1-.48.48h-3a.48.48,0,0,1-.49-.48V263a9.11,9.11,0,0,0-8.29-9.2,8.91,8.91,0,0,0-9.52,8.88Z" style="fill:#407BFF;stroke:#263238;stroke-linecap:round;stroke-linejoin:round"></path><polygon points="103.2 272.87 96.9 272.87 95.55 284.2 104.55 284.2 103.2 272.87" style="fill:#407BFF;stroke:#263238;stroke-linecap:round;stroke-linejoin:round"></polygon><polygon points="118.4 272.87 112.09 272.87 110.74 284.2 119.75 284.2 118.4 272.87" style="fill:#407BFF;stroke:#263238;stroke-linecap:round;stroke-linejoin:round"></polygon><path d="M86.5,286.5v39.6a63.59,63.59,0,0,0,30.25,7.4c29.41,0,53.25-18.69,53.25-41.75a33.81,33.81,0,0,0-.43-5.25Z" style="fill:#757575;stroke:#263238;stroke-linecap:round;stroke-linejoin:round"></path><rect x="86.5" y="283" width="87.5" height="5.5" style="fill:#999;stroke:#263238;stroke-linecap:round;stroke-linejoin:round"></rect><rect x="157.5" y="283" width="16.5" height="5.5" style="fill:#757575;stroke:#263238;stroke-linecap:round;stroke-linejoin:round"></rect></g><g id="freepik--Floor--inject-2"><line x1="42.05" y1="460.23" x2="455.61" y2="460.23" style="fill:none;stroke:#263238;stroke-linecap:round;stroke-linejoin:round"></line></g><g id="freepik--Lamp--inject-2"><polygon points="390.81 102.42 369.42 139.47 412.2 139.47 390.81 102.42" style="fill:#407BFF;stroke:#263238;stroke-linecap:round;stroke-linejoin:round"></polygon><polygon points="373.63 139.47 377.84 139.47 391.26 102.42 373.63 139.47" style="fill:#263238;stroke:#263238;stroke-linecap:round;stroke-linejoin:round"></polygon><line x1="390.81" y1="102.42" x2="390.81" y2="34.15" style="fill:none;stroke:#263238;stroke-linecap:round;stroke-linejoin:round;stroke-width:2px"></line></g></svg>