<svg xmlns="http://www.w3.org/2000/svg" viewBox="0 0 500 500"><g id="freepik--background-simple--inject-74"><path d="M373.6,121.47c-3-6.49-6.21-12.89-9.82-19C322,32.17,210.27-6.11,154.89,66.57c-13.2,17.33-17.8,38.26-26.69,58.13-20.2,45.18-58,72.19-81.63,114-18.35,32.44-15.9,74-5.67,109.07,11.13,38.1,30.7,64.71,62,84.93,35.1,22.68,72.65,16.38,110.59,8.49,17.07-3.54,34.66-7.17,52.11-5.81,21.85,1.69,43.41,8.53,65.09,11.85,22.54,3.45,45.93,4.27,67.64-3.26,69.53-24.1,86-137,57.41-201.73-10.12-22.9-27.27-40.57-43.2-58.49C395.36,164.43,384.82,145.49,373.6,121.47Z" style="fill:#407BFF"></path><path d="M373.6,121.47c-3-6.49-6.21-12.89-9.82-19C322,32.17,210.27-6.11,154.89,66.57c-13.2,17.33-17.8,38.26-26.69,58.13-20.2,45.18-58,72.19-81.63,114-18.35,32.44-15.9,74-5.67,109.07,11.13,38.1,30.7,64.71,62,84.93,35.1,22.68,72.65,16.38,110.59,8.49,17.07-3.54,34.66-7.17,52.11-5.81,21.85,1.69,43.41,8.53,65.09,11.85,22.54,3.45,45.93,4.27,67.64-3.26,69.53-24.1,86-137,57.41-201.73-10.12-22.9-27.27-40.57-43.2-58.49C395.36,164.43,384.82,145.49,373.6,121.47Z" style="fill:#fff;opacity:0.8"></path></g><g id="freepik--Sun--inject-74"><circle cx="417.32" cy="63.52" r="34.32" style="fill:#407BFF"></circle></g><g id="freepik--Clouds--inject-74"><path d="M424.78,103.59s-3.39-17.53-18.65-23.75-24.88,1.7-27.14,7.35-2.82,15.27-11.3,11.31-11.87-8.48-22.62-4-7.34,14.13-15.26,15.83-5.09-2.83-13.56-1.7-7.92,6.22-10.18,9-2.26.56-10.18,1.69a25,25,0,0,0-13,6.22H457.57s4.52-9-7.35-15.83S428.17,110.37,424.78,103.59Z" style="fill:#fff;stroke:#adadad;stroke-linecap:round;stroke-linejoin:round"></path><path d="M107.72,147.38S105.52,136,95.64,132s-16.12,1.1-17.58,4.76-1.83,9.89-7.33,7.33-7.69-5.49-14.65-2.56-4.76,9.15-9.89,10.25-3.29-1.83-8.79-1.1-5.12,4-6.59,5.86-1.46.37-6.59,1.1a16.12,16.12,0,0,0-8.42,4H129s2.93-5.86-4.76-10.26S109.92,151.77,107.72,147.38Z" style="fill:#fff;stroke:#adadad;stroke-linecap:round;stroke-linejoin:round"></path><path d="M436.88,191.14s-1.26-6.51-6.93-8.82-9.24.63-10.08,2.73-1.05,5.67-4.2,4.2-4.41-3.15-8.4-1.47-2.73,5.25-5.67,5.88-1.89-1-5-.63-2.94,2.31-3.78,3.36-.84.21-3.78.63a9.28,9.28,0,0,0-4.83,2.31h64.89s1.68-3.36-2.73-5.88S438.14,193.66,436.88,191.14Z" style="fill:#fff;stroke:#adadad;stroke-linecap:round;stroke-linejoin:round"></path></g><g id="freepik--Birds--inject-74"><path d="M108.78,257.49l.94-2.26a4.08,4.08,0,0,0-2.26.37c-1.13.57-2.08,1-2.08,1a9.64,9.64,0,0,1-2.64-1.32,15.36,15.36,0,0,0-7.55-1.89c-2.45,0-11.14,1.32-9.06,2.07s7,.19,8.12.76,1.88,1.51,2.83,2.08a24.61,24.61,0,0,0,4.15,1.32,3.84,3.84,0,0,1-2.08,1.13l-1.51.38a3.73,3.73,0,0,0,3.59,2.64,18.53,18.53,0,0,0,4.72-.19l-.19-2.64s0,.94,4.91,1.13,7.17,1.32,7.17,1.32,8.87,3.21,8.3,2.64-4.34-4.34-6.41-5.09a31.76,31.76,0,0,0-5.85-1.32A21.56,21.56,0,0,1,108.78,257.49Z" style="fill:#adadad"></path><path d="M153.49,250.22l.94-2.26a4.08,4.08,0,0,0-2.26.37c-1.14.57-2.08.95-2.08.95a9.64,9.64,0,0,1-2.64-1.32,15.49,15.49,0,0,0-7.55-1.89c-2.45,0-11.14,1.32-9.06,2.08s7,.18,8.12.75,1.88,1.51,2.83,2.08a24.61,24.61,0,0,0,4.15,1.32,3.84,3.84,0,0,1-2.08,1.13l-1.51.38a3.73,3.73,0,0,0,3.59,2.64,18.53,18.53,0,0,0,4.72-.19l-.19-2.64s0,.94,4.91,1.13,7.17,1.32,7.17,1.32,8.87,3.21,8.3,2.65-4.34-4.35-6.41-5.1a32.51,32.51,0,0,0-5.86-1.32A21.62,21.62,0,0,1,153.49,250.22Z" style="fill:#adadad"></path><path d="M162.42,281l.7-1.69a3,3,0,0,0-1.68.29c-.85.42-1.55.7-1.55.7a7.25,7.25,0,0,1-2-1,11.51,11.51,0,0,0-5.62-1.4c-1.83,0-8.29,1-6.75,1.54s5.2.15,6,.57,1.4,1.12,2.11,1.54a18.23,18.23,0,0,0,3.09,1,2.82,2.82,0,0,1-1.55.84l-1.12.28a2.77,2.77,0,0,0,2.67,2,13.88,13.88,0,0,0,3.51-.14l-.14-2s0,.7,3.66.84a14.15,14.15,0,0,1,5.34,1s6.6,2.39,6.18,2-3.23-3.24-4.78-3.8a24.31,24.31,0,0,0-4.35-1A15.92,15.92,0,0,1,162.42,281Z" style="fill:#adadad"></path><path d="M133.32,284.86a4.53,4.53,0,0,1,.94-2.27c.75-.75,1.89-1.32.75-3s-9.81-7-8.87-5.09,4.34,3.77,3.78,5.47a5.86,5.86,0,0,1-2.08,3.21l-1.7.94a3,3,0,0,0-2.07-.56c-1.51,0-.19-.38-1.51,0s-3,.94-2.27,2.83.95,2.64,2.08,1.88a10.17,10.17,0,0,1,3.21-1.51c1.32-.37,3,1.14,4,2.46s2.27.75,0,3-4.34,3.77-3,4,8.31-4.34,8.87-5.85-1.51-2.26-1.13-2.83a2.27,2.27,0,0,1,2.08-.76l1.88.19s-1.13-2.26-2.45-2.26A16.57,16.57,0,0,0,133.32,284.86Z" style="fill:#adadad"></path></g><g id="freepik--Water--inject-74"><rect x="28.23" y="300.44" width="454.52" height="51" style="fill:#407BFF"></rect><line x1="21.53" y1="300.92" x2="492.12" y2="300.92" style="fill:none;stroke:#263238;stroke-miterlimit:10"></line><path d="M28.6,351.63s8.18-7.36,34.44-6.26,31.07,5,48.58,5,34.41-8.54,45.08-5.52,30.19,9.94,43.76,5.52,27.57-2.76,36.33-1.65,34.57,3.31,49,2.76,39.83-11.6,59.09-9.39,28.45,8.28,35.45,6.63,8.31-5.53,17.5-4.42,18.39,5.52,28.89,6.07,16.19-4.42,30.64-4.42a61.82,61.82,0,0,1,25.38,5.53Z" style="fill:#fff"></path><line x1="52.71" y1="307.53" x2="91" y2="307.53" style="fill:none;stroke:#263238;stroke-miterlimit:10;stroke-width:0.5px"></line><line x1="86.29" y1="310.44" x2="111.62" y2="310.44" style="fill:none;stroke:#263238;stroke-miterlimit:10;stroke-width:0.5px"></line><line x1="35.63" y1="312.47" x2="58.01" y2="312.47" style="fill:none;stroke:#263238;stroke-miterlimit:10;stroke-width:0.5px"></line><line x1="136.95" y1="306.95" x2="155.21" y2="306.95" style="fill:none;stroke:#263238;stroke-miterlimit:10;stroke-width:0.5px"></line><line x1="119.86" y1="311.02" x2="125.75" y2="311.02" style="fill:none;stroke:#263238;stroke-miterlimit:10;stroke-width:0.5px"></line><line x1="75.68" y1="312.76" x2="89.23" y2="312.76" style="fill:none;stroke:#263238;stroke-miterlimit:10;stroke-width:0.5px"></line><line x1="155.79" y1="313.92" x2="197.62" y2="313.92" style="fill:none;stroke:#263238;stroke-miterlimit:10;stroke-width:0.5px"></line><line x1="162.86" y1="307.24" x2="185.25" y2="307.24" style="fill:none;stroke:#263238;stroke-miterlimit:10;stroke-width:0.5px"></line><line x1="143.42" y1="314.21" x2="148.73" y2="314.21" style="fill:none;stroke:#263238;stroke-miterlimit:10;stroke-width:0.5px"></line><line x1="201.74" y1="308.41" x2="216.47" y2="308.41" style="fill:none;stroke:#263238;stroke-miterlimit:10;stroke-width:0.5px"></line><line x1="218.82" y1="311.6" x2="242.97" y2="311.6" style="fill:none;stroke:#263238;stroke-miterlimit:10;stroke-width:0.5px"></line><line x1="275.96" y1="307.53" x2="314.25" y2="307.53" style="fill:none;stroke:#263238;stroke-miterlimit:10;stroke-width:0.5px"></line><line x1="309.54" y1="310.44" x2="334.86" y2="310.44" style="fill:none;stroke:#263238;stroke-miterlimit:10;stroke-width:0.5px"></line><line x1="258.88" y1="312.47" x2="281.26" y2="312.47" style="fill:none;stroke:#263238;stroke-miterlimit:10;stroke-width:0.5px"></line><line x1="360.19" y1="306.95" x2="378.45" y2="306.95" style="fill:none;stroke:#263238;stroke-miterlimit:10;stroke-width:0.5px"></line><line x1="343.11" y1="311.02" x2="349" y2="311.02" style="fill:none;stroke:#263238;stroke-miterlimit:10;stroke-width:0.5px"></line><line x1="298.93" y1="312.76" x2="312.48" y2="312.76" style="fill:none;stroke:#263238;stroke-miterlimit:10;stroke-width:0.5px"></line><line x1="379.04" y1="313.92" x2="420.87" y2="313.92" style="fill:none;stroke:#263238;stroke-miterlimit:10;stroke-width:0.5px"></line><line x1="386.11" y1="307.24" x2="408.5" y2="307.24" style="fill:none;stroke:#263238;stroke-miterlimit:10;stroke-width:0.5px"></line><line x1="366.67" y1="314.21" x2="371.97" y2="314.21" style="fill:none;stroke:#263238;stroke-miterlimit:10;stroke-width:0.5px"></line><line x1="424.99" y1="308.41" x2="439.71" y2="308.41" style="fill:none;stroke:#263238;stroke-miterlimit:10;stroke-width:0.5px"></line><line x1="442.07" y1="311.6" x2="466.22" y2="311.6" style="fill:none;stroke:#263238;stroke-miterlimit:10;stroke-width:0.5px"></line><line x1="52.71" y1="325.27" x2="91" y2="325.27" style="fill:none;stroke:#263238;stroke-miterlimit:10;stroke-width:0.5px"></line><line x1="86.29" y1="332.89" x2="111.62" y2="332.89" style="fill:none;stroke:#263238;stroke-miterlimit:10;stroke-width:0.5px"></line><line x1="35.63" y1="338.23" x2="58.01" y2="338.23" style="fill:none;stroke:#263238;stroke-miterlimit:10;stroke-width:0.5px"></line><line x1="136.95" y1="323.74" x2="155.21" y2="323.74" style="fill:none;stroke:#263238;stroke-miterlimit:10;stroke-width:0.5px"></line><line x1="119.86" y1="334.42" x2="125.75" y2="334.42" style="fill:none;stroke:#263238;stroke-miterlimit:10;stroke-width:0.5px"></line><line x1="75.68" y1="338.99" x2="89.23" y2="338.99" style="fill:none;stroke:#263238;stroke-miterlimit:10;stroke-width:0.5px"></line><line x1="155.79" y1="342.04" x2="197.62" y2="342.04" style="fill:none;stroke:#263238;stroke-miterlimit:10;stroke-width:0.5px"></line><line x1="162.86" y1="324.51" x2="185.25" y2="324.51" style="fill:none;stroke:#263238;stroke-miterlimit:10;stroke-width:0.5px"></line><line x1="143.42" y1="342.8" x2="148.73" y2="342.8" style="fill:none;stroke:#263238;stroke-miterlimit:10;stroke-width:0.5px"></line><line x1="201.74" y1="327.55" x2="216.47" y2="327.55" style="fill:none;stroke:#263238;stroke-miterlimit:10;stroke-width:0.5px"></line><line x1="218.82" y1="335.94" x2="242.97" y2="335.94" style="fill:none;stroke:#263238;stroke-miterlimit:10;stroke-width:0.5px"></line><line x1="275.96" y1="325.27" x2="314.25" y2="325.27" style="fill:none;stroke:#263238;stroke-miterlimit:10;stroke-width:0.5px"></line><line x1="309.54" y1="332.89" x2="334.86" y2="332.89" style="fill:none;stroke:#263238;stroke-miterlimit:10;stroke-width:0.5px"></line><line x1="258.88" y1="338.23" x2="281.26" y2="338.23" style="fill:none;stroke:#263238;stroke-miterlimit:10;stroke-width:0.5px"></line><line x1="360.19" y1="323.74" x2="378.45" y2="323.74" style="fill:none;stroke:#263238;stroke-miterlimit:10;stroke-width:0.5px"></line><line x1="343.11" y1="334.42" x2="349" y2="334.42" style="fill:none;stroke:#263238;stroke-miterlimit:10;stroke-width:0.5px"></line><line x1="298.93" y1="338.99" x2="312.48" y2="338.99" style="fill:none;stroke:#263238;stroke-miterlimit:10;stroke-width:0.5px"></line><line x1="379.04" y1="342.04" x2="420.87" y2="342.04" style="fill:none;stroke:#263238;stroke-miterlimit:10;stroke-width:0.5px"></line><line x1="386.11" y1="324.51" x2="408.5" y2="324.51" style="fill:none;stroke:#263238;stroke-miterlimit:10;stroke-width:0.5px"></line><line x1="366.67" y1="342.8" x2="371.97" y2="342.8" style="fill:none;stroke:#263238;stroke-miterlimit:10;stroke-width:0.5px"></line><line x1="424.99" y1="327.55" x2="439.71" y2="327.55" style="fill:none;stroke:#263238;stroke-miterlimit:10;stroke-width:0.5px"></line><line x1="442.07" y1="335.94" x2="466.22" y2="335.94" style="fill:none;stroke:#263238;stroke-miterlimit:10;stroke-width:0.5px"></line><line x1="22.92" y1="351.88" x2="489.34" y2="351.88" style="fill:none;stroke:#263238;stroke-miterlimit:10"></line></g><g id="freepik--Floor--inject-74"><path d="M20.62,439.31s21.34,0,35.81-.7,35.05,0,46.47,0,112.51-.71,128.75,1.4,17.56-2.33,37.33-1.4,72.38-3.53,94.47,0,56.38-1.41,70.85-.71,41.9,0,48.76,2.11" style="fill:none;stroke:#263238;stroke-miterlimit:10"></path><path d="M392.2,446.72c-8.71,2.37-14.86,2.37-22.55,2.85s-13.32.94-13.32.94" style="fill:none;stroke:#263238;stroke-miterlimit:10"></path><path d="M412.19,445.78a67.5,67.5,0,0,0-15.95.12" style="fill:none;stroke:#263238;stroke-miterlimit:10"></path><path d="M353.33,456.18c15,2,36.87,2.33,40.92,1.91" style="fill:none;stroke:#263238;stroke-miterlimit:10"></path><path d="M310.72,456.2s22.55-3.79,36.9-.95" style="fill:none;stroke:#263238;stroke-miterlimit:10"></path><path d="M179.5,451.53a143.77,143.77,0,0,1-20-1c-21-2.37-26.14-.47-34.34.95s-20,1.42-20,1.42" style="fill:none;stroke:#263238;stroke-miterlimit:10"></path><path d="M189.77,450.51a37.5,37.5,0,0,1-5.69.78" style="fill:none;stroke:#263238;stroke-miterlimit:10"></path><path d="M51.31,444.8a103.43,103.43,0,0,1,17-1.39c16.4,0,26.65,3.31,34.85,3.31s12.81-.47,12.81-.47" style="fill:none;stroke:#263238;stroke-miterlimit:10"></path><path d="M41.16,447.2A55.46,55.46,0,0,1,47,445.63" style="fill:none;stroke:#263238;stroke-miterlimit:10"></path><path d="M235.29,464.32a95.8,95.8,0,0,1-13.23,1.83c-11.27.47-24.09-.95-40.49-1.42s-21,.47-21,.47" style="fill:none;stroke:#263238;stroke-miterlimit:10"></path><path d="M255.88,459.52s-6.65,1.81-14.53,3.55" style="fill:none;stroke:#263238;stroke-miterlimit:10"></path><path d="M297.94,446.75a76.2,76.2,0,0,0,8.17.45,237.72,237.72,0,0,0,26.13-1.9" style="fill:none;stroke:#263238;stroke-miterlimit:10"></path><path d="M248.71,447.2s18.45-2.85,28.19-2.85c6,0,11.15,1.07,17,1.9" style="fill:none;stroke:#263238;stroke-miterlimit:10"></path><path d="M453.77,453.76c5.56.31,9.16.54,9.16.54" style="fill:none;stroke:#263238;stroke-miterlimit:10"></path><path d="M421.41,453.83s14.87-.95,24.6-.47l3.61.18" style="fill:none;stroke:#263238;stroke-miterlimit:10"></path></g></svg>